<svg
  width="256"
  height="256"
  viewBox="0 0 256 256"
  fill="none"
  xmlns="http://www.w3.org/2000/svg"
>
<mask
    id="mask0_1_2"
    style="mask-type:luminance"
    maskUnits="userSpaceOnUse"
    x="16"
    y="16"
    width="224"
    height="224"
  >
<path d="M240 16H16V240H240V16Z" fill="white" />
</mask>
<g mask="url(#mask0_1_2)">
<path
      d="M203.956 64.6416C191.481 52.1113 175.587 43.5782 158.284 40.1213C140.981 36.6644 123.046 38.4391 106.747 45.2208C90.4479 52.0026 76.5171 63.4868 66.7159 78.2214C56.9146 92.9559 51.6833 110.279 51.6833 128C51.6833 145.721 56.9146 163.044 66.7159 177.779C76.5171 192.513 90.4479 203.997 106.747 210.779C123.046 217.561 140.981 219.336 158.284 215.879C175.587 212.422 191.481 203.889 203.956 191.358"
      stroke="url(#paint0_linear_1_2)"
      stroke-width="40"
      stroke-linecap="round"
    />
</g>
<path
    d="M204.5 77C211.404 77 217 71.4036 217 64.5C217 57.5964 211.404 52 204.5 52C197.596 52 192 57.5964 192 64.5C192 71.4036 197.596 77 204.5 77Z"
    fill="#FE5119"
  />
<path
    d="M204.5 204C211.404 204 217 198.404 217 191.5C217 184.596 211.404 179 204.5 179C197.596 179 192 184.596 192 191.5C192 198.404 197.596 204 204.5 204Z"
    fill="#FE5119"
  />
<path
    d="M134 75.7528C138.022 73.4306 142.978 73.4306 147 75.7528L182.93 96.4972C186.953 98.8194 189.43 103.111 189.43 107.756V149.244C189.43 153.889 186.953 158.181 182.93 160.503L147 181.247C142.978 183.569 138.022 183.569 134 181.247L98.0696 160.503C94.0474 158.181 91.5696 153.889 91.5696 149.244V107.756C91.5696 103.111 94.0474 98.8194 98.0696 96.4972L134 75.7528Z"
    fill="#FF7272"
  />
<defs>
<linearGradient
      id="paint0_linear_1_2"
      x1="51.6833"
      y1="38.4"
      x2="228.534"
      y2="188.676"
      gradientUnits="userSpaceOnUse"
    >
<stop stop-color="#06B6D4" />
<stop offset="1" stop-color="#2563EB" />
</linearGradient>
</defs>
</svg>
